<svg xmlns="http://www.w3.org/2000/svg" version="1.1" xmlns:xlink="http://www.w3.org/1999/xlink" xmlns:svgjs="http://svgjs.dev/svgjs" width="1440" height="560" preserveAspectRatio="none" viewBox="0 0 1440 560"><g mask="url(&quot;#SvgjsMask1001&quot;)" fill="none"><rect width="1440" height="560" x="0" y="0" fill="rgba(255, 255, 255, 1)"></rect><path d="M700 89.44C680.7 89.44 670.16 117.24 670.16 140C670.16 155.16 683.12 165.28 700 165.28C728.37 165.28 760.67 157.22 760.67 140C760.67 119.3 725.96 89.44 700 89.44" stroke="rgba(51, 121, 194, 0.58)" stroke-width="2"></path><path d="M1120 70C1087.38 70 1052 110.77 1052 140C1052 162.77 1086.56 174 1120 174C1149.59 174 1178.05 162.11 1178.05 140C1178.05 110.11 1150.4 70 1120 70" stroke="rgba(51, 121, 194, 0.58)" stroke-width="2"></path><path d="M280 220.37C248.56 226.97 236.49 251.57 236.49 280C236.49 304.39 257.6 303.64 280 326C327.73 373.64 329.75 371.7 376.76 420C399.75 443.62 394.97 469.83 420 469.83C454.28 469.83 483.08 457.14 495.38 420C514.51 362.23 507.58 338.55 482.86 280C469.89 249.3 454.73 251.71 420 241.5C353.3 221.89 340.31 207.72 280 220.37" stroke="rgba(51, 121, 194, 0.58)" stroke-width="2"></path><path d="M980 245C972.41 245 967 261.2 964.15 280C953.73 348.7 947.46 353.2 953.45 420C955.38 441.54 959.82 449.73 980 456.67C1043.09 478.36 1059.63 489.52 1120 477.27C1149.96 471.19 1160.65 446.23 1160.65 420C1160.65 399.85 1140.65 401.88 1120 384.51C1057.44 331.88 1051.1 336.66 994.24 280C981.1 266.91 987.46 245 980 245" stroke="rgba(51, 121, 194, 0.58)" stroke-width="2"></path><path d="M140 118.46C83.34 127.55 58.17 82.55 0 33.33C-11.83 23.32 -13.46 3.2 0 0C56.54 -13.46 70 0 140 0C173.85 0 207.69 -19.64 207.69 0C207.69 39.59 187.18 110.89 140 118.46" stroke="rgba(51, 121, 194, 0.58)" stroke-width="2"></path><path d="M220 140C220 132.14 251.42 135.94 280 124.15C351.42 94.69 356.94 99.59 420 57.5C449.94 37.51 435.25 12.63 466 0C505.25 -16.12 513 0 560 0C627.14 0 682.33 -31.73 694.29 0C708.72 38.27 611.12 77.3 612.79 140C613.97 184.24 649.86 205.65 700 213.89C763.47 224.32 785.43 159.12 840 177.33C884.49 192.18 885.97 224.53 898.11 280C912.52 345.87 912.13 357.36 893.1 420C883.07 453.02 863.24 442.86 840 471.33C806.11 512.86 819.26 534.4 778.85 560C749.26 578.74 739.42 560 700 560C656.03 560 631.72 586.92 612.05 560C580.57 516.92 612 488.42 597.69 420C585.97 363.98 577.03 366.03 560 311.11C555.33 296.03 566 289.48 554.29 280C496 232.8 491.11 230.01 420 197.75C353.97 167.79 350.23 175.84 280 155.56C250.23 146.96 220 147.85 220 140" stroke="rgba(51, 121, 194, 0.58)" stroke-width="2"></path><path d="M840 91.3C771.83 59.78 716.47 25.3 716.47 0C716.47 -20.35 778.24 0 840 0C910 0 910 0 980 0C1039.82 0 1099.64 -25.1 1099.64 0C1099.64 35.83 1050.59 97.03 980 121.85C920.77 142.68 903.59 120.7 840 91.3" stroke="rgba(51, 121, 194, 0.58)" stroke-width="2"></path><path d="M1260 116.67C1234.59 116.67 1206.15 41.11 1206.15 0C1206.15 -17.23 1233.07 0 1260 0C1283.34 0 1306.67 -15.8 1306.67 0C1306.67 42.54 1284.85 116.67 1260 116.67" stroke="rgba(51, 121, 194, 0.58)" stroke-width="2"></path><path d="M1288 140C1344.56 122.31 1352.04 100 1400 100C1418.04 100 1417.18 118.22 1420 140C1428.84 208.22 1392.75 227.16 1423.33 280C1452.75 330.82 1502.11 301.85 1540 347.31C1560.45 371.85 1540 383.65 1540 420C1540 475.59 1555.08 483.79 1540 531.18C1532.8 553.79 1520.46 554.85 1495.45 560C1450.46 569.26 1447.72 560 1400 560C1365 560 1360 573.23 1330 560C1290 542.35 1288.86 534.03 1260 498.24C1232.41 464.03 1245.73 453.34 1217.1 420C1175.73 371.83 1168.96 377.12 1120 335.21C1087.19 307.12 1053.56 307.72 1053.56 280C1053.56 252.12 1083.87 247.84 1120 224C1187.09 179.73 1188.52 179.52 1260 143.78C1272.52 137.52 1274.56 144.2 1288 140" stroke="rgba(51, 121, 194, 0.58)" stroke-width="2"></path><path d="M0 202.22C45.34 167.55 88.13 151.62 140 172.94C182.73 190.51 189.19 228.37 189.19 280C189.19 319.04 172.44 325.27 140 354.29C94.18 395.27 54.7 371.44 32.67 420C8.04 474.29 58.94 507.44 46.67 560C42.6 577.44 5.83 577.5 0 560C-17.5 507.5 0 490 0 420C0 350 0 350 0 280C0 241.11 -24.66 221.08 0 202.22" stroke="rgba(51, 121, 194, 0.58)" stroke-width="2"></path><path d="M211.56 420C233.63 387.85 247.98 376 280 376C304.85 376 304 396.72 325.29 420C374 473.29 369.55 477.98 420 529.15C438.57 547.98 463.33 551.5 463.33 560C463.33 566.92 441.66 560 420 560C350 560 350 560 280 560C216.83 560 169.22 591.83 153.66 560C135 521.83 170.46 479.85 211.56 420" stroke="rgba(51, 121, 194, 0.58)" stroke-width="2"></path><path d="M960.91 560C960.91 554.08 966.96 540.26 980 540C1046.5 538.67 1050.23 547.44 1120 556.82C1124.61 557.44 1128.75 559.18 1128.75 560C1128.75 560.77 1124.38 560 1120 560C1050 560 1050 560 980 560C970.45 560 960.91 564.08 960.91 560" stroke="rgba(51, 121, 194, 0.58)" stroke-width="2"></path><path d="M140 51.15C107.04 51.15 61.76 13.92 61.76 0C61.76 -11.65 100.88 0 140 0C154.62 0 169.23 -8.48 169.23 0C169.23 17.09 160.77 51.15 140 51.15" stroke="rgba(51, 121, 194, 0.58)" stroke-width="2"></path><path d="M378.52 140C378.52 131.29 397.89 120 420 120C474.63 120 532 131.47 532 140C532 148.47 475.29 154 420 154C398.55 154 378.52 148.29 378.52 140" stroke="rgba(51, 121, 194, 0.58)" stroke-width="2"></path><path d="M560 128.33C533.98 128.33 516 48.45 516 0C516 -15.71 538 0 560 0C591.43 0 622.86 -19.6 622.86 0C622.86 44.56 587.41 128.33 560 128.33" stroke="rgba(51, 121, 194, 0.58)" stroke-width="2"></path><path d="M980 57.04C935.6 57.04 883.75 15.33 883.75 0C883.75 -13.19 931.88 0 980 0C1008 0 1036 -11.75 1036 0C1036 16.77 1011.72 57.04 980 57.04" stroke="rgba(51, 121, 194, 0.58)" stroke-width="2"></path><path d="M0 250.83C58.09 249.12 71.25 261.75 140 275.88C142.19 276.33 141.89 278.01 141.89 280C141.89 281.5 141.56 282.16 140 282.86C70.61 313.98 49.4 344.65 0 343.64C-20.6 343.22 0 311.82 0 280C0 265.41 -11.91 251.18 0 250.83" stroke="rgba(51, 121, 194, 0.58)" stroke-width="2"></path><path d="M660.63 280C660.63 263.91 679.2 262.5 700 262.5C751.39 262.5 805 257.58 805 280C805 308.33 742.72 364 700 364C670.53 364 660.63 314.66 660.63 280" stroke="rgba(51, 121, 194, 0.58)" stroke-width="2"></path><path d="M1112.88 280C1112.88 277.01 1115.55 275.26 1120 274C1189.11 254.45 1194.53 236.31 1260 238.38C1289.37 239.31 1309.68 254.52 1309.68 280C1309.68 320.62 1296.71 369.44 1260 370.59C1201.87 372.4 1189.62 328.79 1120 285.92C1116.06 283.49 1112.88 282.97 1112.88 280" stroke="rgba(51, 121, 194, 0.58)" stroke-width="2"></path><path d="M1336.36 420C1336.36 402.51 1366.5 392.88 1400 392C1468.32 390.19 1472.56 401.13 1540 414.62C1542.56 415.13 1540 417.31 1540 420C1540 424.12 1543.76 426.99 1540 428.24C1473.76 450.32 1465.96 469.34 1400 466.67C1364.14 465.22 1336.36 439.85 1336.36 420" stroke="rgba(51, 121, 194, 0.58)" stroke-width="2"></path><path d="M239.02 560C239.02 518.32 253.67 448 280 448C309.16 448 350 523.4 350 560C350 579.4 315 560 280 560C259.51 560 239.02 574.32 239.02 560" stroke="rgba(51, 121, 194, 0.58)" stroke-width="2"></path><path d="M656.92 560C656.92 518.79 679.44 448 700 448C720.29 448 738.62 517.77 738.62 560C738.62 573.77 719.31 560 700 560C678.46 560 656.92 574.79 656.92 560" stroke="rgba(51, 121, 194, 0.58)" stroke-width="2"></path></g><defs><mask id="SvgjsMask1001"><rect width="1440" height="560" fill="#ffffff"></rect></mask></defs></svg>